<svg width="60" height="60" viewBox="0 0 60 60" fill="none" xmlns="http://www.w3.org/2000/svg">
<path d="M48.75 0C51.849 0 54.4987 1.10026 56.6992 3.30078C58.8997 5.5013 60 8.15104 60 11.25V48.75C60 51.849 58.8997 54.4987 56.6992 56.6992C54.4987 58.8997 51.849 60 48.75 60H41.4062V36.7578H49.1797L50.3516 27.6953H41.4062V21.9141C41.4062 20.4557 41.7122 19.362 42.3242 18.6328C42.9362 17.9036 44.1276 17.5391 45.8984 17.5391L50.6641 17.5V9.41406C49.0234 9.17969 46.7057 9.0625 43.7109 9.0625C40.1693 9.0625 37.3372 10.1042 35.2148 12.1875C33.0924 14.2708 32.0312 17.2135 32.0312 21.0156V27.6953H24.2188V36.7578H32.0312V60H11.25C8.15104 60 5.5013 58.8997 3.30078 56.6992C1.10026 54.4987 0 51.849 0 48.75V11.25C0 8.15104 1.10026 5.5013 3.30078 3.30078C5.5013 1.10026 8.15104 0 11.25 0H48.75Z" fill="white"/>
</svg>
